<mxfile host="app.diagrams.net" agent="Mozilla/5.0 (Macintosh; Intel Mac OS X 10_15_7) AppleWebKit/605.1.15 (KHTML, like Gecko) Version/18.1 Safari/605.1.15" version="25.0.3">
  <diagram name="Page-1" id="iyEF6w-apEn2G2JaHF0v">
    <mxGraphModel dx="1861" dy="534" grid="1" gridSize="10" guides="1" tooltips="1" connect="1" arrows="1" fold="1" page="1" pageScale="1" pageWidth="827" pageHeight="1169" math="0" shadow="0">
      <root>
        <mxCell id="0" />
        <mxCell id="1" parent="0" />
        <mxCell id="oiVrRURtHwTcUtBkJ1Dq-1" value="" style="edgeStyle=orthogonalEdgeStyle;rounded=0;orthogonalLoop=1;jettySize=auto;html=1;" parent="1" source="oiVrRURtHwTcUtBkJ1Dq-2" target="oiVrRURtHwTcUtBkJ1Dq-4" edge="1">
          <mxGeometry relative="1" as="geometry" />
        </mxCell>
        <mxCell id="oiVrRURtHwTcUtBkJ1Dq-2" value="Start" style="ellipse;whiteSpace=wrap;html=1;" parent="1" vertex="1">
          <mxGeometry x="-785" y="460" width="120" height="80" as="geometry" />
        </mxCell>
        <mxCell id="oiVrRURtHwTcUtBkJ1Dq-3" value="" style="edgeStyle=orthogonalEdgeStyle;rounded=0;orthogonalLoop=1;jettySize=auto;html=1;" parent="1" source="oiVrRURtHwTcUtBkJ1Dq-4" target="oiVrRURtHwTcUtBkJ1Dq-6" edge="1">
          <mxGeometry relative="1" as="geometry" />
        </mxCell>
        <mxCell id="oiVrRURtHwTcUtBkJ1Dq-4" value="Input which file to import data" style="shape=parallelogram;perimeter=parallelogramPerimeter;whiteSpace=wrap;html=1;fixedSize=1;" parent="1" vertex="1">
          <mxGeometry x="-790" y="580" width="130" height="70" as="geometry" />
        </mxCell>
        <mxCell id="oiVrRURtHwTcUtBkJ1Dq-5" value="" style="edgeStyle=orthogonalEdgeStyle;rounded=0;orthogonalLoop=1;jettySize=auto;html=1;" parent="1" source="oiVrRURtHwTcUtBkJ1Dq-6" target="oiVrRURtHwTcUtBkJ1Dq-9" edge="1">
          <mxGeometry relative="1" as="geometry" />
        </mxCell>
        <mxCell id="oiVrRURtHwTcUtBkJ1Dq-6" value="Is option valid?" style="rhombus;whiteSpace=wrap;html=1;" parent="1" vertex="1">
          <mxGeometry x="-775" y="690" width="100" height="90" as="geometry" />
        </mxCell>
        <mxCell id="oiVrRURtHwTcUtBkJ1Dq-7" value="" style="endArrow=classic;html=1;rounded=0;exitX=1;exitY=0.5;exitDx=0;exitDy=0;entryX=0.938;entryY=0.6;entryDx=0;entryDy=0;entryPerimeter=0;edgeStyle=orthogonalEdgeStyle;" parent="1" source="oiVrRURtHwTcUtBkJ1Dq-6" target="oiVrRURtHwTcUtBkJ1Dq-4" edge="1">
          <mxGeometry width="50" height="50" relative="1" as="geometry">
            <mxPoint x="-455" y="840" as="sourcePoint" />
            <mxPoint x="-405" y="790" as="targetPoint" />
            <Array as="points">
              <mxPoint x="-635" y="735" />
              <mxPoint x="-635" y="622" />
            </Array>
          </mxGeometry>
        </mxCell>
        <mxCell id="vKuo-pgiyefIPwn80iR7-19" value="" style="edgeStyle=orthogonalEdgeStyle;rounded=0;orthogonalLoop=1;jettySize=auto;html=1;" edge="1" parent="1" source="oiVrRURtHwTcUtBkJ1Dq-9" target="vKuo-pgiyefIPwn80iR7-17">
          <mxGeometry relative="1" as="geometry" />
        </mxCell>
        <mxCell id="oiVrRURtHwTcUtBkJ1Dq-9" value="Read book data from excel into ADT variable" style="rounded=0;whiteSpace=wrap;html=1;" parent="1" vertex="1">
          <mxGeometry x="-785" y="820" width="120" height="60" as="geometry" />
        </mxCell>
        <mxCell id="oiVrRURtHwTcUtBkJ1Dq-10" value="" style="edgeStyle=orthogonalEdgeStyle;rounded=0;orthogonalLoop=1;jettySize=auto;html=1;entryX=0.5;entryY=0;entryDx=0;entryDy=0;" parent="1" source="oiVrRURtHwTcUtBkJ1Dq-11" target="oiVrRURtHwTcUtBkJ1Dq-16" edge="1">
          <mxGeometry relative="1" as="geometry">
            <mxPoint x="-725" y="1270" as="targetPoint" />
          </mxGeometry>
        </mxCell>
        <mxCell id="oiVrRURtHwTcUtBkJ1Dq-11" value="Initialize variable to count compare &amp;amp; move/swap operation" style="rounded=0;whiteSpace=wrap;html=1;" parent="1" vertex="1">
          <mxGeometry x="-784.5" y="1090" width="120" height="60" as="geometry" />
        </mxCell>
        <mxCell id="oiVrRURtHwTcUtBkJ1Dq-15" value="" style="edgeStyle=orthogonalEdgeStyle;rounded=0;orthogonalLoop=1;jettySize=auto;html=1;" parent="1" source="oiVrRURtHwTcUtBkJ1Dq-16" target="oiVrRURtHwTcUtBkJ1Dq-18" edge="1">
          <mxGeometry relative="1" as="geometry" />
        </mxCell>
        <mxCell id="oiVrRURtHwTcUtBkJ1Dq-16" value="Start radix sort process" style="rounded=0;whiteSpace=wrap;html=1;" parent="1" vertex="1">
          <mxGeometry x="-785" y="1210" width="120" height="60" as="geometry" />
        </mxCell>
        <mxCell id="oiVrRURtHwTcUtBkJ1Dq-17" value="" style="edgeStyle=orthogonalEdgeStyle;rounded=0;orthogonalLoop=1;jettySize=auto;html=1;" parent="1" source="oiVrRURtHwTcUtBkJ1Dq-18" target="oiVrRURtHwTcUtBkJ1Dq-20" edge="1">
          <mxGeometry relative="1" as="geometry" />
        </mxCell>
        <mxCell id="oiVrRURtHwTcUtBkJ1Dq-18" value="Find Max ISBN Length" style="rounded=0;whiteSpace=wrap;html=1;" parent="1" vertex="1">
          <mxGeometry x="-785" y="1320" width="120" height="60" as="geometry" />
        </mxCell>
        <mxCell id="oiVrRURtHwTcUtBkJ1Dq-19" value="" style="edgeStyle=orthogonalEdgeStyle;rounded=0;orthogonalLoop=1;jettySize=auto;html=1;" parent="1" source="oiVrRURtHwTcUtBkJ1Dq-20" target="oiVrRURtHwTcUtBkJ1Dq-22" edge="1">
          <mxGeometry relative="1" as="geometry" />
        </mxCell>
        <mxCell id="oiVrRURtHwTcUtBkJ1Dq-20" value="Iterative Over Each Digit Position" style="rounded=0;whiteSpace=wrap;html=1;" parent="1" vertex="1">
          <mxGeometry x="-785" y="1440" width="120" height="60" as="geometry" />
        </mxCell>
        <mxCell id="oiVrRURtHwTcUtBkJ1Dq-21" value="" style="edgeStyle=orthogonalEdgeStyle;rounded=0;orthogonalLoop=1;jettySize=auto;html=1;exitX=0.5;exitY=1;exitDx=0;exitDy=0;" parent="1" source="oiVrRURtHwTcUtBkJ1Dq-22" target="oiVrRURtHwTcUtBkJ1Dq-24" edge="1">
          <mxGeometry relative="1" as="geometry">
            <mxPoint x="-725" y="1670" as="sourcePoint" />
          </mxGeometry>
        </mxCell>
        <mxCell id="vKuo-pgiyefIPwn80iR7-34" value="" style="edgeStyle=orthogonalEdgeStyle;rounded=0;orthogonalLoop=1;jettySize=auto;html=1;" edge="1" parent="1" source="oiVrRURtHwTcUtBkJ1Dq-22" target="oiVrRURtHwTcUtBkJ1Dq-27">
          <mxGeometry relative="1" as="geometry" />
        </mxCell>
        <mxCell id="oiVrRURtHwTcUtBkJ1Dq-22" value="Stable Counting Sort for Current Digit" style="rounded=0;whiteSpace=wrap;html=1;" parent="1" vertex="1">
          <mxGeometry x="-785" y="1550" width="120" height="60" as="geometry" />
        </mxCell>
        <mxCell id="vKuo-pgiyefIPwn80iR7-46" value="" style="edgeStyle=orthogonalEdgeStyle;rounded=0;orthogonalLoop=1;jettySize=auto;html=1;entryX=0;entryY=0.5;entryDx=0;entryDy=0;" edge="1" parent="1" source="oiVrRURtHwTcUtBkJ1Dq-24" target="vKuo-pgiyefIPwn80iR7-6">
          <mxGeometry relative="1" as="geometry" />
        </mxCell>
        <mxCell id="vKuo-pgiyefIPwn80iR7-47" value="" style="edgeStyle=orthogonalEdgeStyle;rounded=0;orthogonalLoop=1;jettySize=auto;html=1;" edge="1" parent="1" source="oiVrRURtHwTcUtBkJ1Dq-24" target="oiVrRURtHwTcUtBkJ1Dq-33">
          <mxGeometry relative="1" as="geometry" />
        </mxCell>
        <mxCell id="oiVrRURtHwTcUtBkJ1Dq-24" value="Rebuild Array from Buckets" style="rounded=0;whiteSpace=wrap;html=1;" parent="1" vertex="1">
          <mxGeometry x="-785" y="1720" width="120" height="60" as="geometry" />
        </mxCell>
        <mxCell id="vKuo-pgiyefIPwn80iR7-33" value="" style="edgeStyle=orthogonalEdgeStyle;rounded=0;orthogonalLoop=1;jettySize=auto;html=1;" edge="1" parent="1" source="oiVrRURtHwTcUtBkJ1Dq-27" target="vKuo-pgiyefIPwn80iR7-13">
          <mxGeometry relative="1" as="geometry" />
        </mxCell>
        <mxCell id="vKuo-pgiyefIPwn80iR7-39" value="" style="edgeStyle=orthogonalEdgeStyle;rounded=0;orthogonalLoop=1;jettySize=auto;html=1;entryX=1;entryY=0.5;entryDx=0;entryDy=0;exitX=0.5;exitY=1;exitDx=0;exitDy=0;" edge="1" parent="1" source="oiVrRURtHwTcUtBkJ1Dq-27" target="oiVrRURtHwTcUtBkJ1Dq-22">
          <mxGeometry relative="1" as="geometry" />
        </mxCell>
        <mxCell id="oiVrRURtHwTcUtBkJ1Dq-27" value="Current compare operation is&amp;nbsp;&lt;div&gt;100,500,1000?&lt;/div&gt;" style="rhombus;whiteSpace=wrap;html=1;" parent="1" vertex="1">
          <mxGeometry x="-455" y="1517.5" width="130" height="125" as="geometry" />
        </mxCell>
        <mxCell id="oiVrRURtHwTcUtBkJ1Dq-32" value="" style="edgeStyle=orthogonalEdgeStyle;rounded=0;orthogonalLoop=1;jettySize=auto;html=1;" parent="1" source="oiVrRURtHwTcUtBkJ1Dq-33" target="oiVrRURtHwTcUtBkJ1Dq-35" edge="1">
          <mxGeometry relative="1" as="geometry" />
        </mxCell>
        <mxCell id="oiVrRURtHwTcUtBkJ1Dq-33" value="Record total comparison count, move count and sort time taken for entire sort process" style="rounded=0;whiteSpace=wrap;html=1;" parent="1" vertex="1">
          <mxGeometry x="-800" y="1840" width="150" height="80" as="geometry" />
        </mxCell>
        <mxCell id="oiVrRURtHwTcUtBkJ1Dq-34" value="" style="edgeStyle=orthogonalEdgeStyle;rounded=0;orthogonalLoop=1;jettySize=auto;html=1;" parent="1" source="oiVrRURtHwTcUtBkJ1Dq-35" target="oiVrRURtHwTcUtBkJ1Dq-37" edge="1">
          <mxGeometry relative="1" as="geometry" />
        </mxCell>
        <mxCell id="oiVrRURtHwTcUtBkJ1Dq-35" value="Display and write total time taken and operation count for compare, move and sort operation to txt log file" style="rounded=0;whiteSpace=wrap;html=1;" parent="1" vertex="1">
          <mxGeometry x="-800" y="2020" width="150" height="80" as="geometry" />
        </mxCell>
        <mxCell id="vKuo-pgiyefIPwn80iR7-28" value="" style="edgeStyle=orthogonalEdgeStyle;rounded=0;orthogonalLoop=1;jettySize=auto;html=1;" edge="1" parent="1" source="oiVrRURtHwTcUtBkJ1Dq-37" target="vKuo-pgiyefIPwn80iR7-25">
          <mxGeometry relative="1" as="geometry" />
        </mxCell>
        <mxCell id="oiVrRURtHwTcUtBkJ1Dq-37" value="Display and write total time taken for the 100,500,1000th compare and move operation to txt log file" style="rounded=0;whiteSpace=wrap;html=1;" parent="1" vertex="1">
          <mxGeometry x="-800" y="2160" width="150" height="80" as="geometry" />
        </mxCell>
        <mxCell id="oiVrRURtHwTcUtBkJ1Dq-38" value="" style="edgeStyle=orthogonalEdgeStyle;rounded=0;orthogonalLoop=1;jettySize=auto;html=1;" parent="1" source="oiVrRURtHwTcUtBkJ1Dq-39" target="oiVrRURtHwTcUtBkJ1Dq-40" edge="1">
          <mxGeometry relative="1" as="geometry" />
        </mxCell>
        <mxCell id="oiVrRURtHwTcUtBkJ1Dq-39" value="Write the sorted book data to text file" style="rounded=0;whiteSpace=wrap;html=1;" parent="1" vertex="1">
          <mxGeometry x="-800" y="2470" width="150" height="80" as="geometry" />
        </mxCell>
        <mxCell id="oiVrRURtHwTcUtBkJ1Dq-40" value="End" style="ellipse;whiteSpace=wrap;html=1;" parent="1" vertex="1">
          <mxGeometry x="-785" y="2590" width="120" height="80" as="geometry" />
        </mxCell>
        <mxCell id="oiVrRURtHwTcUtBkJ1Dq-43" value="True" style="text;html=1;align=center;verticalAlign=middle;resizable=0;points=[];autosize=1;strokeColor=none;fillColor=none;" parent="1" vertex="1">
          <mxGeometry x="-290" y="1720" width="50" height="30" as="geometry" />
        </mxCell>
        <mxCell id="oiVrRURtHwTcUtBkJ1Dq-44" value="False" style="text;html=1;align=center;verticalAlign=middle;resizable=0;points=[];autosize=1;strokeColor=none;fillColor=none;" parent="1" vertex="1">
          <mxGeometry x="-470" y="1800" width="50" height="30" as="geometry" />
        </mxCell>
        <mxCell id="oiVrRURtHwTcUtBkJ1Dq-45" value="False" style="text;html=1;align=center;verticalAlign=middle;resizable=0;points=[];autosize=1;strokeColor=none;fillColor=none;" parent="1" vertex="1">
          <mxGeometry x="-687" y="700" width="50" height="30" as="geometry" />
        </mxCell>
        <mxCell id="oiVrRURtHwTcUtBkJ1Dq-46" value="True" style="text;html=1;align=center;verticalAlign=middle;resizable=0;points=[];autosize=1;strokeColor=none;fillColor=none;" parent="1" vertex="1">
          <mxGeometry x="-725" y="780" width="50" height="30" as="geometry" />
        </mxCell>
        <mxCell id="vKuo-pgiyefIPwn80iR7-4" value="" style="edgeStyle=orthogonalEdgeStyle;rounded=0;orthogonalLoop=1;jettySize=auto;html=1;entryX=1;entryY=0.5;entryDx=0;entryDy=0;" edge="1" parent="1" source="vKuo-pgiyefIPwn80iR7-1" target="oiVrRURtHwTcUtBkJ1Dq-11">
          <mxGeometry relative="1" as="geometry">
            <mxPoint x="-435" y="1000" as="targetPoint" />
            <Array as="points">
              <mxPoint x="-515" y="1120" />
            </Array>
          </mxGeometry>
        </mxCell>
        <mxCell id="vKuo-pgiyefIPwn80iR7-1" value="Print unsorted Data In 10x10 matrix" style="rounded=0;whiteSpace=wrap;html=1;" vertex="1" parent="1">
          <mxGeometry x="-580" y="955" width="120" height="60" as="geometry" />
        </mxCell>
        <mxCell id="vKuo-pgiyefIPwn80iR7-10" value="" style="edgeStyle=orthogonalEdgeStyle;rounded=0;orthogonalLoop=1;jettySize=auto;html=1;" edge="1" parent="1" source="vKuo-pgiyefIPwn80iR7-6" target="vKuo-pgiyefIPwn80iR7-9">
          <mxGeometry relative="1" as="geometry" />
        </mxCell>
        <mxCell id="vKuo-pgiyefIPwn80iR7-45" value="" style="edgeStyle=orthogonalEdgeStyle;rounded=0;orthogonalLoop=1;jettySize=auto;html=1;entryX=1;entryY=0.5;entryDx=0;entryDy=0;exitX=0.5;exitY=1;exitDx=0;exitDy=0;" edge="1" parent="1" source="vKuo-pgiyefIPwn80iR7-6" target="oiVrRURtHwTcUtBkJ1Dq-24">
          <mxGeometry relative="1" as="geometry" />
        </mxCell>
        <mxCell id="vKuo-pgiyefIPwn80iR7-6" value="Current move operation is&amp;nbsp;&lt;div&gt;100,500,1000?&lt;/div&gt;" style="rhombus;whiteSpace=wrap;html=1;" vertex="1" parent="1">
          <mxGeometry x="-450" y="1690" width="120" height="120" as="geometry" />
        </mxCell>
        <mxCell id="vKuo-pgiyefIPwn80iR7-9" value="Set the milestone time taken" style="whiteSpace=wrap;html=1;" vertex="1" parent="1">
          <mxGeometry x="-180" y="1720" width="120" height="60" as="geometry" />
        </mxCell>
        <mxCell id="vKuo-pgiyefIPwn80iR7-11" value="True" style="text;html=1;align=center;verticalAlign=middle;resizable=0;points=[];autosize=1;strokeColor=none;fillColor=none;" vertex="1" parent="1">
          <mxGeometry x="-290" y="1542.5" width="50" height="30" as="geometry" />
        </mxCell>
        <mxCell id="vKuo-pgiyefIPwn80iR7-13" value="Set the milestone time taken" style="whiteSpace=wrap;html=1;" vertex="1" parent="1">
          <mxGeometry x="-180" y="1550" width="120" height="60" as="geometry" />
        </mxCell>
        <mxCell id="vKuo-pgiyefIPwn80iR7-18" value="" style="edgeStyle=orthogonalEdgeStyle;rounded=0;orthogonalLoop=1;jettySize=auto;html=1;" edge="1" parent="1" source="vKuo-pgiyefIPwn80iR7-17" target="oiVrRURtHwTcUtBkJ1Dq-11">
          <mxGeometry relative="1" as="geometry" />
        </mxCell>
        <mxCell id="vKuo-pgiyefIPwn80iR7-20" value="" style="edgeStyle=orthogonalEdgeStyle;rounded=0;orthogonalLoop=1;jettySize=auto;html=1;" edge="1" parent="1" source="vKuo-pgiyefIPwn80iR7-17" target="vKuo-pgiyefIPwn80iR7-1">
          <mxGeometry relative="1" as="geometry" />
        </mxCell>
        <mxCell id="vKuo-pgiyefIPwn80iR7-17" value="Is Dataset =100" style="rhombus;whiteSpace=wrap;html=1;" vertex="1" parent="1">
          <mxGeometry x="-777.75" y="940" width="105.5" height="90" as="geometry" />
        </mxCell>
        <mxCell id="vKuo-pgiyefIPwn80iR7-21" value="True" style="text;html=1;align=center;verticalAlign=middle;resizable=0;points=[];autosize=1;strokeColor=none;fillColor=none;" vertex="1" parent="1">
          <mxGeometry x="-660" y="940" width="50" height="30" as="geometry" />
        </mxCell>
        <mxCell id="vKuo-pgiyefIPwn80iR7-22" value="False" style="text;html=1;align=center;verticalAlign=middle;resizable=0;points=[];autosize=1;strokeColor=none;fillColor=none;" vertex="1" parent="1">
          <mxGeometry x="-715" y="1040" width="50" height="30" as="geometry" />
        </mxCell>
        <mxCell id="vKuo-pgiyefIPwn80iR7-32" value="" style="edgeStyle=orthogonalEdgeStyle;rounded=0;orthogonalLoop=1;jettySize=auto;html=1;entryX=1;entryY=0.5;entryDx=0;entryDy=0;exitX=0.5;exitY=1;exitDx=0;exitDy=0;" edge="1" parent="1" source="vKuo-pgiyefIPwn80iR7-23" target="oiVrRURtHwTcUtBkJ1Dq-39">
          <mxGeometry relative="1" as="geometry">
            <mxPoint x="-490" y="2455" as="targetPoint" />
          </mxGeometry>
        </mxCell>
        <mxCell id="vKuo-pgiyefIPwn80iR7-23" value="Print sorted Data In 10x10 matrix" style="rounded=0;whiteSpace=wrap;html=1;" vertex="1" parent="1">
          <mxGeometry x="-550" y="2315" width="120" height="60" as="geometry" />
        </mxCell>
        <mxCell id="vKuo-pgiyefIPwn80iR7-24" value="" style="edgeStyle=orthogonalEdgeStyle;rounded=0;orthogonalLoop=1;jettySize=auto;html=1;" edge="1" parent="1" source="vKuo-pgiyefIPwn80iR7-25" target="vKuo-pgiyefIPwn80iR7-23">
          <mxGeometry relative="1" as="geometry" />
        </mxCell>
        <mxCell id="vKuo-pgiyefIPwn80iR7-29" value="" style="edgeStyle=orthogonalEdgeStyle;rounded=0;orthogonalLoop=1;jettySize=auto;html=1;entryX=0.5;entryY=0;entryDx=0;entryDy=0;" edge="1" parent="1" source="vKuo-pgiyefIPwn80iR7-25" target="oiVrRURtHwTcUtBkJ1Dq-39">
          <mxGeometry relative="1" as="geometry" />
        </mxCell>
        <mxCell id="vKuo-pgiyefIPwn80iR7-25" value="Is Dataset =100" style="rhombus;whiteSpace=wrap;html=1;" vertex="1" parent="1">
          <mxGeometry x="-777.75" y="2300" width="105.5" height="90" as="geometry" />
        </mxCell>
        <mxCell id="vKuo-pgiyefIPwn80iR7-26" value="True" style="text;html=1;align=center;verticalAlign=middle;resizable=0;points=[];autosize=1;strokeColor=none;fillColor=none;" vertex="1" parent="1">
          <mxGeometry x="-637" y="2300" width="50" height="30" as="geometry" />
        </mxCell>
        <mxCell id="vKuo-pgiyefIPwn80iR7-27" value="False" style="text;html=1;align=center;verticalAlign=middle;resizable=0;points=[];autosize=1;strokeColor=none;fillColor=none;" vertex="1" parent="1">
          <mxGeometry x="-710" y="2410" width="50" height="30" as="geometry" />
        </mxCell>
        <mxCell id="vKuo-pgiyefIPwn80iR7-40" value="False" style="text;html=1;align=center;verticalAlign=middle;resizable=0;points=[];autosize=1;strokeColor=none;fillColor=none;" vertex="1" parent="1">
          <mxGeometry x="-520" y="1620" width="50" height="30" as="geometry" />
        </mxCell>
      </root>
    </mxGraphModel>
  </diagram>
</mxfile>
